<svg viewBox="0 0 850 1100" width="850" height="1100" xmlns="http://www.w3.org/2000/svg">
<title>tactile-dot-grid</title>

<!-- Tactile dot grid starter for freeform drawing and point plotting. -->

<!-- Border -->
<rect id="pageBorder" x="50" y="50" width="750" height="1000" stroke="black" stroke-width="4" fill="none" />

<!-- Dot grid -->
<g id="dotGrid">
<circle cx="100" cy="100" r="6" fill="black" />
<circle cx="150" cy="100" r="6" fill="black" />
<circle cx="200" cy="100" r="6" fill="black" />
<circle cx="250" cy="100" r="6" fill="black" />
<circle cx="300" cy="100" r="6" fill="black" />
<circle cx="350" cy="100" r="6" fill="black" />
<circle cx="400" cy="100" r="6" fill="black" />
<circle cx="450" cy="100" r="6" fill="black" />
<circle cx="500" cy="100" r="6" fill="black" />
<circle cx="550" cy="100" r="6" fill="black" />
<circle cx="600" cy="100" r="6" fill="black" />
<circle cx="650" cy="100" r="6" fill="black" />
<circle cx="700" cy="100" r="6" fill="black" />
<circle cx="750" cy="100" r="6" fill="black" />
<circle cx="100" cy="150" r="6" fill="black" />
<circle cx="150" cy="150" r="6" fill="black" />
<circle cx="200" cy="150" r="6" fill="black" />
<circle cx="250" cy="150" r="6" fill="black" />
<circle cx="300" cy="150" r="6" fill="black" />
<circle cx="350" cy="150" r="6" fill="black" />
<circle cx="400" cy="150" r="6" fill="black" />
<circle cx="450" cy="150" r="6" fill="black" />
<circle cx="500" cy="150" r="6" fill="black" />
<circle cx="550" cy="150" r="6" fill="black" />
<circle cx="600" cy="150" r="6" fill="black" />
<circle cx="650" cy="150" r="6" fill="black" />
<circle cx="700" cy="150" r="6" fill="black" />
<circle cx="750" cy="150" r="6" fill="black" />
<circle cx="100" cy="200" r="6" fill="black" />
<circle cx="150" cy="200" r="6" fill="black" />
<circle cx="200" cy="200" r="6" fill="black" />
<circle cx="250" cy="200" r="6" fill="black" />
<circle cx="300" cy="200" r="6" fill="black" />
<circle cx="350" cy="200" r="6" fill="black" />
<circle cx="400" cy="200" r="6" fill="black" />
<circle cx="450" cy="200" r="6" fill="black" />
<circle cx="500" cy="200" r="6" fill="black" />
<circle cx="550" cy="200" r="6" fill="black" />
<circle cx="600" cy="200" r="6" fill="black" />
<circle cx="650" cy="200" r="6" fill="black" />
<circle cx="700" cy="200" r="6" fill="black" />
<circle cx="750" cy="200" r="6" fill="black" />
<circle cx="100" cy="250" r="6" fill="black" />
<circle cx="150" cy="250" r="6" fill="black" />
<circle cx="200" cy="250" r="6" fill="black" />
<circle cx="250" cy="250" r="6" fill="black" />
<circle cx="300" cy="250" r="6" fill="black" />
<circle cx="350" cy="250" r="6" fill="black" />
<circle cx="400" cy="250" r="6" fill="black" />
<circle cx="450" cy="250" r="6" fill="black" />
<circle cx="500" cy="250" r="6" fill="black" />
<circle cx="550" cy="250" r="6" fill="black" />
<circle cx="600" cy="250" r="6" fill="black" />
<circle cx="650" cy="250" r="6" fill="black" />
<circle cx="700" cy="250" r="6" fill="black" />
<circle cx="750" cy="250" r="6" fill="black" />
<circle cx="100" cy="300" r="6" fill="black" />
<circle cx="150" cy="300" r="6" fill="black" />
<circle cx="200" cy="300" r="6" fill="black" />
<circle cx="250" cy="300" r="6" fill="black" />
<circle cx="300" cy="300" r="6" fill="black" />
<circle cx="350" cy="300" r="6" fill="black" />
<circle cx="400" cy="300" r="6" fill="black" />
<circle cx="450" cy="300" r="6" fill="black" />
<circle cx="500" cy="300" r="6" fill="black" />
<circle cx="550" cy="300" r="6" fill="black" />
<circle cx="600" cy="300" r="6" fill="black" />
<circle cx="650" cy="300" r="6" fill="black" />
<circle cx="700" cy="300" r="6" fill="black" />
<circle cx="750" cy="300" r="6" fill="black" />
<circle cx="100" cy="350" r="6" fill="black" />
<circle cx="150" cy="350" r="6" fill="black" />
<circle cx="200" cy="350" r="6" fill="black" />
<circle cx="250" cy="350" r="6" fill="black" />
<circle cx="300" cy="350" r="6" fill="black" />
<circle cx="350" cy="350" r="6" fill="black" />
<circle cx="400" cy="350" r="6" fill="black" />
<circle cx="450" cy="350" r="6" fill="black" />
<circle cx="500" cy="350" r="6" fill="black" />
<circle cx="550" cy="350" r="6" fill="black" />
<circle cx="600" cy="350" r="6" fill="black" />
<circle cx="650" cy="350" r="6" fill="black" />
<circle cx="700" cy="350" r="6" fill="black" />
<circle cx="750" cy="350" r="6" fill="black" />
<circle cx="100" cy="400" r="6" fill="black" />
<circle cx="150" cy="400" r="6" fill="black" />
<circle cx="200" cy="400" r="6" fill="black" />
<circle cx="250" cy="400" r="6" fill="black" />
<circle cx="300" cy="400" r="6" fill="black" />
<circle cx="350" cy="400" r="6" fill="black" />
<circle cx="400" cy="400" r="6" fill="black" />
<circle cx="450" cy="400" r="6" fill="black" />
<circle cx="500" cy="400" r="6" fill="black" />
<circle cx="550" cy="400" r="6" fill="black" />
<circle cx="600" cy="400" r="6" fill="black" />
<circle cx="650" cy="400" r="6" fill="black" />
<circle cx="700" cy="400" r="6" fill="black" />
<circle cx="750" cy="400" r="6" fill="black" />
</g>

</svg>
